HIERARCHY
ROOT Hips
{
	OFFSET 0.000000 88.474243 0.000000
	CHANNELS 6 Xposition Yposition Zposition Zrotation Yrotation Xrotation 
	JOINT Hips_Spine
	{
		OFFSET 0.000000 0.000000 0.000000
		CHANNELS 3 Zrotation Yrotation Xrotation
		JOINT Spine
		{
			OFFSET 0.005100 8.711998 -0.691000
			CHANNELS 3 Zrotation Yrotation Xrotation
			JOINT Spine1
			{
				OFFSET -0.009200 8.660301 -1.275000
				CHANNELS 3 Zrotation Yrotation Xrotation
				JOINT Spine2
				{
					OFFSET 0.006300 9.852501 -1.857000
					CHANNELS 3 Zrotation Yrotation Xrotation
					JOINT Spine2_Neck
					{
						OFFSET 0.000000 0.000000 0.000000
						CHANNELS 3 Zrotation Yrotation Xrotation
						JOINT Neck
						{
							OFFSET 0.016300 11.420799 -0.263300
							CHANNELS 3 Zrotation Yrotation Xrotation
							End Site #name: Head
							{
								OFFSET -0.019200 9.262405 2.362500
							}
						}
					}
					JOINT Spine2_LeftShoulder
					{
						OFFSET 0.000000 0.000000 0.000000
						CHANNELS 3 Zrotation Yrotation Xrotation
						JOINT LeftShoulder
						{
							OFFSET 5.616900 6.732201 -0.345700
							CHANNELS 3 Zrotation Yrotation Xrotation
							JOINT LeftArm
							{
								OFFSET 10.664888 -0.183372 -2.440700
								CHANNELS 3 Zrotation Yrotation Xrotation
								JOINT LeftForeArm
								{
									OFFSET 27.459126 0.000000 0.000000
									CHANNELS 3 Zrotation Yrotation Xrotation
									End Site #name: LeftHand
									{
										OFFSET 21.306858 0.000000 0.000000
									}
								}
							}
						}
					}
					JOINT Spine2_RightShoulder
					{
						OFFSET 0.000000 0.000000 0.000000
						CHANNELS 3 Zrotation Yrotation Xrotation
						JOINT RightShoulder
						{
							OFFSET -5.580300 6.737503 -0.344400
							CHANNELS 3 Zrotation Yrotation Xrotation
							JOINT RightArm
							{
								OFFSET -10.679335 -0.188484 -2.383900
								CHANNELS 3 Zrotation Yrotation Xrotation
								JOINT RightForeArm
								{
									OFFSET -27.503529 0.000000 0.000000
									CHANNELS 3 Zrotation Yrotation Xrotation
									End Site #name: RightHand
									{
										OFFSET -21.306808 0.000000 0.000000
									}
								}
							}
						}
					}
				}
			}
		}
	}
	JOINT Hips_LeftUpLeg
	{
		OFFSET 0.000000 0.000000 0.000000
		CHANNELS 3 Zrotation Yrotation Xrotation
		JOINT LeftUpLeg
		{
			OFFSET 6.857700 -6.739601 0.312100
			CHANNELS 3 Zrotation Yrotation Xrotation
			JOINT LeftLeg
			{
				OFFSET -0.367590 -34.731552 -4.572400
				CHANNELS 3 Zrotation Yrotation Xrotation
				End Site #name: LeftFoot
				{
					OFFSET 0.367590 -34.656704 -6.067400
				}
			}
		}
	}
	JOINT Hips_RightUpLeg
	{
		OFFSET 0.000000 0.000000 0.000000
		CHANNELS 3 Zrotation Yrotation Xrotation
		JOINT RightUpLeg
		{
			OFFSET -6.876100 -6.733299 0.301000
			CHANNELS 3 Zrotation Yrotation Xrotation
			JOINT RightLeg
			{
				OFFSET 0.347353 -34.795158 -4.515900
				CHANNELS 3 Zrotation Yrotation Xrotation
				End Site #name: RightFoot
				{
					OFFSET -0.347353 -34.589367 -6.070300
				}
			}
		}
	}
}
MOTION
Frames: 17
Frame Time: 0.041667
-0.052932 -1.455111 47.724638 1.257914 -15.741970 4.122503 -0.000000 0.000000 0.000000 -4.524470 4.730343 2.135315 0.057379 2.157844 0.168923 0.000000 0.000000 0.000000 -0.158580 0.814721 0.474194 1.959533 3.026160 4.549202 -1.461669 2.982641 1.263979 2.649113 13.923907 0.298238 -66.332493 31.547860 -9.758406 -3.597495 -19.995072 9.492057 -0.530597 1.642783 -0.703278 3.256296 0.025979 1.801504 36.783305 31.128263 -22.643774 2.407938 65.676726 6.461638 0.000000 -0.000000 0.000000 -2.194100 4.931531 -39.443761 -5.554265 -6.390638 54.056548 -0.000000 -0.000000 0.000000 -11.962356 10.379080 -28.219105 3.587617 -1.244000 53.902008 
0.472203 -1.929900 49.200031 0.318784 -14.291428 3.956857 -0.000000 0.000000 0.000000 -4.498365 4.869297 2.423198 0.095881 2.191337 0.083275 0.000000 0.000000 0.000000 -0.200074 0.380125 0.779082 0.916816 3.129131 4.925378 -1.326769 2.708195 1.107672 3.173452 14.151937 0.198637 -64.803245 27.328847 -8.437856 -3.784802 -23.698883 10.114909 -0.429769 1.502150 -0.579383 3.670471 0.294244 2.017711 41.152654 25.454081 -17.680005 3.555234 63.842125 7.628495 0.000000 -0.000000 0.000000 -3.699159 5.532564 -37.854087 -6.433933 -8.016611 54.034561 -0.000000 -0.000000 0.000000 -11.736917 7.825660 -28.171094 1.533670 -2.852362 58.158023 
1.025880 -2.162090 50.521822 -0.979737 -12.312389 3.726065 -0.000000 0.000000 0.000000 -4.542397 4.845740 2.494180 0.094451 2.175728 -0.130320 0.000000 0.000000 0.000000 -0.241644 -0.038304 1.086506 0.220851 3.155799 5.707680 -1.164158 2.257241 0.964163 3.550362 13.960088 0.067444 -62.213068 20.759511 -7.651419 -3.983217 -27.681474 10.563633 -0.254598 1.272788 -0.369616 4.138041 0.384756 2.223334 44.173342 18.163484 -14.799419 4.239652 60.930387 8.303764 0.000000 -0.000000 0.000000 -5.222901 6.183058 -36.849936 -7.055180 -9.536247 53.701878 -0.000000 -0.000000 0.000000 -11.461366 4.829641 -29.486225 -0.595347 -4.295378 60.786809 
1.612127 -2.195999 51.671091 -2.445632 -8.771606 3.176516 -0.000000 0.000000 0.000000 -4.644471 4.669477 2.349812 0.057510 2.106875 -0.388041 0.000000 0.000000 0.000000 -0.259467 -0.412670 1.503084 -0.155895 2.965451 6.570476 -0.986825 1.651079 0.859745 3.712184 13.341603 -0.084394 -58.946297 11.683095 -7.192157 -4.094254 -31.404857 10.791822 -0.067082 0.951898 -0.036600 4.522136 0.064509 2.414067 46.220416 8.578475 -14.208982 4.687576 57.601290 8.711656 0.000000 -0.000000 0.000000 -6.515404 6.542516 -36.004392 -7.677525 -10.993857 53.142734 -0.000000 -0.000000 0.000000 -11.465114 2.244693 -31.904171 -2.594494 -5.347872 61.923999 
2.190658 -2.123670 52.622414 -4.231064 -4.695092 2.090774 -0.000000 0.000000 0.000000 -4.567212 4.273206 1.802343 -0.020002 1.985654 -0.635011 0.000000 0.000000 0.000000 -0.254332 -0.738802 2.050459 -0.223621 2.629274 7.388688 -0.789339 0.932368 0.815515 3.593769 12.241647 -0.302369 -56.658805 1.790351 -6.371721 -4.153068 -35.082925 10.794537 0.142928 0.530956 0.464914 4.931720 -0.975926 2.569647 48.040506 -1.424545 -15.118036 4.537591 52.509223 8.559132 0.000000 -0.000000 0.000000 -7.701666 6.533323 -35.057309 -8.251716 -12.499046 52.418898 -0.000000 -0.000000 0.000000 -11.395056 0.207591 -34.671904 -4.376069 -6.140640 61.886487 
2.717636 -2.027952 53.415817 -5.839709 0.311518 0.542483 -0.000000 0.000000 0.000000 -4.387279 3.786212 1.184997 -0.073318 1.838229 -0.741874 0.000000 0.000000 0.000000 -0.224394 -1.097756 2.568336 -0.122936 2.083099 7.931804 -0.587254 0.194495 0.841339 2.941337 10.769985 -0.554554 -55.014734 -8.491550 -5.391607 -4.036674 -38.354156 10.468226 0.344322 0.040505 1.126843 5.455850 -2.470547 2.609986 49.165337 -10.368337 -15.040609 4.062285 47.021445 8.259357 0.000000 -0.000000 0.000000 -8.731008 6.081160 -34.062739 -8.765226 -13.903908 51.679211 -0.000000 -0.000000 0.000000 -11.046045 -1.387696 -37.515427 -5.504150 -6.597938 61.245938 
3.169586 -1.945317 54.092308 -7.148618 5.520543 -1.211851 -0.000000 0.000000 0.000000 -4.237859 3.238683 0.576599 -0.124647 1.676944 -0.630499 0.000000 0.000000 0.000000 -0.188616 -1.479581 3.088981 0.106755 1.439169 8.438335 -0.380379 -0.529632 0.970999 1.948431 8.730432 -0.795247 -53.353523 -19.692591 -5.115292 -3.731042 -40.820843 9.881460 0.509604 -0.501666 2.046168 6.231120 -4.517917 2.624773 49.215512 -18.095825 -14.187836 3.404352 41.742047 8.036790 0.000000 -0.000000 0.000000 -9.538057 5.194617 -32.961788 -8.625667 -14.691509 50.151010 -0.000000 -0.000000 -0.000000 -10.146491 -2.673923 -40.648960 -6.139796 -6.689424 60.360980 
3.529264 -1.818621 54.659789 -7.918627 9.869975 -2.733247 -0.000000 0.000000 0.000000 -4.146627 2.718059 -0.084572 -0.196923 1.533584 -0.341198 0.000000 0.000000 0.000000 -0.156749 -1.774516 3.657037 0.568118 0.933233 9.052980 -0.186224 -1.171540 1.267586 0.628797 6.219526 -0.956924 -50.556827 -31.169454 -7.185302 -3.506932 -43.759782 9.326491 0.580128 -1.068046 3.150368 6.935915 -6.705001 2.591055 48.030952 -24.192477 -12.249191 2.705059 36.381570 7.845022 0.000000 -0.000000 0.000000 -9.877531 4.023932 -31.653998 -7.719279 -14.553416 47.992512 -0.000000 -0.000000 -0.000000 -8.668487 -3.469708 -44.515051 -6.220871 -6.237481 60.085176 
3.763314 -1.646788 55.110640 -7.807732 12.519752 -3.919957 -0.000000 0.000000 0.000000 -4.019118 2.166596 -0.797874 -0.268799 1.405536 0.087837 0.000000 0.000000 0.000000 -0.111346 -1.961992 4.240661 0.867669 0.623042 9.250916 -0.031830 -1.723920 1.651105 -1.078281 3.257010 -1.038736 -46.733952 -42.090771 -9.899658 -3.488746 -47.865086 8.936923 0.568843 -1.601161 4.235624 7.575398 -8.502214 2.648467 46.808355 -30.207448 -11.359700 1.825271 30.754525 7.648154 0.000000 -0.000000 0.000000 -9.819305 2.440468 -30.558958 -5.835248 -13.227034 45.981023 -0.000000 -0.000000 -0.000000 -6.831211 -3.652111 -49.487740 -5.694851 -5.174022 60.981509 
3.853545 -1.447026 55.459654 -6.920765 12.536901 -4.561993 -0.000000 0.000000 0.000000 -3.889472 1.472087 -1.440660 -0.303031 1.266340 0.543012 0.000000 0.000000 0.000000 -0.064072 -2.084162 4.658951 0.758637 0.173050 8.433362 0.139981 -2.203723 2.099100 -2.897442 0.328122 -0.985875 -42.147179 -50.710002 -13.253241 -3.171824 -51.291446 8.298873 0.543508 -1.992782 4.862513 7.961268 -9.428184 2.856820 45.761150 -35.107663 -11.092302 0.728212 24.654418 7.396465 0.000000 0.000000 0.000000 -9.848932 0.920747 -29.423565 -3.295694 -10.949898 44.135135 -0.000000 -0.000000 -0.000000 -5.342735 -3.293910 -54.914724 -4.539241 -3.543724 62.676533 
3.815811 -1.228039 55.726058 -5.651516 10.276028 -5.250367 -0.000000 0.000000 0.000000 -3.845318 0.701044 -1.960655 -0.414589 1.122599 0.938762 0.000000 0.000000 0.000000 -0.024971 -2.152518 4.813343 0.374131 -0.364051 6.980898 0.324537 -2.577737 2.494512 -4.697103 -2.278344 -0.885591 -35.141753 -57.541277 -18.948642 -2.681927 -55.199072 7.565745 0.457701 -2.276550 5.297994 8.188712 -9.712875 3.081056 44.910810 -38.978420 -11.519195 -0.313307 18.931810 7.115655 0.000000 0.000000 0.000000 -10.122846 -0.602799 -28.240122 -0.477256 -8.133646 42.411057 -0.000000 -0.000000 -0.000000 -4.391577 -2.073998 -59.656159 -2.964680 -1.645535 64.639939 
3.696350 -1.070244 55.958108 -4.493162 6.149538 -5.553079 -0.000000 0.000000 0.000000 -3.755955 -0.100796 -2.496013 -0.566926 0.985167 0.911735 0.000000 0.000000 0.000000 -0.069141 -2.203846 4.615429 -0.195182 -0.968446 5.052294 0.477667 -2.845791 2.890137 -5.767578 -4.730970 -0.699994 -25.979522 -62.487964 -26.678245 -1.781539 -58.995781 6.474528 0.322629 -2.509729 5.539416 8.199530 -9.854873 3.136802 44.363976 -42.119897 -12.683965 -0.989161 14.330772 6.904822 0.000000 0.000000 0.000000 -10.086563 -1.536673 -27.470497 1.688946 -5.602214 40.869803 -0.000000 -0.000000 -0.000000 -3.443527 -0.624237 -63.503160 -1.422662 0.331200 66.220442 
3.503525 -1.069839 56.230843 -4.678993 3.453840 -5.263480 -0.000000 0.000000 -0.000000 -3.651948 -0.921669 -3.017193 -0.827851 0.823796 0.792003 0.000000 0.000000 0.000000 -0.218615 -2.269593 4.079690 -0.744188 -1.623351 2.974290 0.612490 -3.047203 3.253136 -5.810349 -6.520284 -0.599969 -14.233971 -65.576714 -37.215577 -0.448494 -62.362542 5.076136 0.167880 -2.752874 5.614224 7.970473 -10.303599 2.951014 43.193247 -45.092358 -13.807707 -1.756164 10.119081 7.108706 0.000000 0.000000 0.000000 -9.645166 -1.212825 -27.535059 3.403649 -2.952277 39.395131 -0.000000 -0.000000 -0.000000 -2.536192 1.187134 -66.581870 0.060200 2.302947 66.484866 
3.236364 -1.313256 56.550058 -5.319519 2.501402 -4.595539 -0.000000 -0.000000 -0.000000 -3.480955 -1.697245 -3.521375 -1.050069 0.660368 0.576780 0.000000 0.000000 0.000000 -0.359493 -2.328032 3.427208 -1.233843 -2.258299 1.081557 0.700485 -3.141857 3.565670 -5.313247 -7.848236 -0.470030 -2.780990 -66.573882 -47.959143 0.933111 -65.208262 3.726033 0.032778 -2.949470 5.454428 7.854403 -10.929698 2.586543 41.215486 -47.012729 -14.554677 -3.504197 6.482458 8.342724 0.000000 0.000000 0.000000 -8.415048 0.015847 -27.688613 4.482565 -0.718548 37.430208 -0.000000 -0.000000 -0.000000 -1.740461 3.042570 -69.357439 0.612531 3.727641 65.684937 
2.931266 -1.895076 56.881290 -6.540598 1.681621 -3.212794 -0.000000 -0.000000 -0.000000 -2.483150 -2.787858 -3.407870 -1.186775 0.483992 0.322008 0.000000 0.000000 0.000000 -0.447213 -2.410866 2.643389 -1.587448 -2.914732 -0.588687 0.772303 -3.132986 3.808076 -4.394771 -8.741501 -0.295930 6.653248 -65.915972 -57.019361 2.475991 -67.577018 2.240002 -0.035574 -3.120101 5.046716 7.802365 -11.895421 2.018302 39.323465 -47.455821 -15.708202 -5.026925 3.535835 9.279412 0.000000 0.000000 0.000000 -6.754400 1.565530 -28.063041 4.867014 0.893588 35.744073 -0.000000 -0.000000 -0.000000 -1.025312 3.674950 -72.645908 0.475204 4.661031 65.016252 
2.636898 -2.631648 57.210514 -8.067869 0.985212 -1.645416 -0.000000 -0.000000 -0.000000 -1.135411 -4.073378 -2.800303 -1.254065 0.340115 0.084426 0.000000 0.000000 0.000000 -0.480176 -2.555063 1.746871 -1.849038 -3.656680 -2.188118 0.874092 -3.007048 3.951237 -3.115880 -9.058688 -0.186016 13.400316 -64.194316 -63.565981 4.309016 -69.615977 0.479203 -0.056323 -3.216902 4.486110 7.935920 -12.878115 1.369797 37.498101 -46.557166 -17.334987 -5.901299 2.156028 9.433620 0.000000 0.000000 0.000000 -5.388400 2.513393 -29.607312 4.730810 1.935642 34.958811 -0.000000 -0.000000 -0.000000 -0.496542 3.309842 -75.338608 0.104714 5.056362 63.985795 
2.366559 -3.280986 57.542833 -9.669770 0.934483 -0.492496 -0.000000 -0.000000 -0.000000 0.036516 -5.301724 -1.805461 -1.287901 0.224462 -0.065582 0.000000 0.000000 0.000000 -0.503771 -2.741539 0.805661 -2.114655 -4.431039 -3.779948 0.967174 -2.750008 4.078576 -1.640732 -8.747666 -0.112644 17.472436 -61.920829 -67.379089 6.321861 -70.959255 -1.392873 -0.077471 -3.232397 3.893757 8.172083 -13.829234 0.644939 35.905703 -44.315525 -19.669136 -5.993089 2.311615 8.597927 0.000000 0.000000 0.000000 -4.253984 2.536858 -31.094352 4.181440 2.450546 34.587068 -0.000000 0.000000 -0.000000 -0.953691 2.861551 -76.347235 0.717078 5.118217 62.589953 
